<svg viewBox="0 0 251.819 249.057" xmlns="http://www.w3.org/2000/svg">
  <path fill="#fff" d="M145.44,8.28a28.39,28.39,0,0,0-40.08,0L8.3,105a28.18,28.18,0,0,0,.09,40l95.85,94.75a28.4,28.4,0,0,0,40-.08l10.95-10.9a9.42,9.42,0,0,0,0-13.32l-32.12-32a18.79,18.79,0,0,1,0-26.64l26.13-26a9.4,9.4,0,0,0,0-13.32L130.6,98.94a9.48,9.48,0,0,0-13.36,0l-27,26.94a9.48,9.48,0,0,1-13.36,0l-.48-.48a9.4,9.4,0,0,1,0-13.32L156.3,32.42a9.4,9.4,0,0,0,0-13.32Z"/>
  <path fill="#fff" d="M143.71,72.55,170.14,46.2a9.49,9.49,0,0,1,13.37,0l58.14,58a28.18,28.18,0,0,1,0,40l-59,58.75a9.46,9.46,0,0,1-13.36,0L143,176.65a9.39,9.39,0,0,1,0-13.31l32.51-32.41a9.4,9.4,0,0,0,0-13.32L143.71,85.87A9.4,9.4,0,0,1,143.71,72.55Z"/>
</svg>
